<svg height="48" width="48" xmlns="http://www.w3.org/2000/svg"
   ><circle style="fill:#ffc;stroke:#ffc;stroke-width:.653061;fill-opacity:1" cx="22" cy="20" r="15.67347"
     /><text y="29.599529" x="7.525569" style="font-size:29.7482px;letter-spacing:0;stroke-width:1.1492" transform="scale(0.94699625,1.0559704)"
     ><tspan x="7.525569" y="29.599529" style="font-size:29.7482px;stroke-width:1.1492"
       >品</tspan></text><path d="m36.977793 30.163488a.90923108.89182579.0 0 1 .909231.891835v7.431901a.60615401.59455047.0 0 0 1.212307.0v-3.011998l.104242-.0045c.384287-.01351.772241-.0089.989243.03147.162428.03146.356428.114154.543118.216623.09333.04989.181856.174826.181856.373472v2.394843a.60615599.59455241.0 0 0 1.212311.0v-1.860979l.128479-.01351c.383098-.02696.707989-.01351.858315.04763.143045.05483.363669.246278.589183.511305.0982.114157.181857.22606.242475.307858v1.600534a.60615401.59455047.0 1 0 1.212308.0v-1.189131h.414621a1.212308 1.189101.0 0 1 1.206249 1.308049l-.328524 3.228392a3.0307702 2.9727528.0 0 1-.38429 1.17839l-1.69117 2.90377a.60615401.59455047.0 0 1-.526143.299768h-7.639966a.60615401.59455047.0 0 1-.541899-.328075l-1.493567-2.931096-3.045315-4.976382a.62676329.61476525.0 0 1 .980757-.750359l2.921661 2.865752a.60615401.59455047.0 0 0 1.035314-.419763v-9.215526a.90923108.89182579.0 0 1 .909224-.891841zm2.121538 4.121443v-3.229608a2.121539 2.0809268.0 1 0-4.243074.0v7.780292l-1.887569-1.851444a1.8390715 1.8038662.0 0 0-2.876805 2.202222l3.01986 4.938362 1.472956 2.889481A1.8184622 1.7836514.0 0 0 36.211617 48h7.639965a1.8184622 1.7836514.0 0 0 1.578422-.898935l1.691173-2.902606a4.2430782 4.1618538.0 0 0 .538264-1.651678l.328526-3.228392A2.4246162 2.3782018.0 0 0 45.575473 36.703551H44.871125A6.1997433 6.0810625.0 0 0 44.634742 36.408727C44.40317 36.136375 44.016465 35.733333 43.567909 35.557339 43.12662 35.383862 42.542301 35.400491 42.164057 35.428804l-.160045.01351a1.5275083 1.4982673.0 0 0-.678897-.763392 3.1907948 3.1297139.0 0 0-.894678-.342463c-.37581-.07371-.895896-.06875-1.272928-.05483zm2.538577 2.407922z" style="fill:#000;fill-opacity:1;stroke-width:1.20065;stroke:none;stroke-opacity:1"
     /><path style="fill:#fff;stroke:#fff;stroke-width:.0286055;stroke-opacity:1" d="m35.95401 46.72622c-.06463-.03208-.143723-.08685-.175769-.121713-.03205-.03486-.402811-.739191-.823924-1.565174l-.76566-1.501788-1.531428-2.50247c-.842286-1.376358-1.549201-2.554055-1.570923-2.617103-.1255-.364267.225684-.790554.620056-.75266.07659.0074.185121.03794.241189.06795.05607.03002.785295.723845 1.620504 1.541841.83521.817997 1.55995 1.509352 1.610534 1.536346.112931.06027.413299.06742.543426.01294.125094-.05237.296153-.248197.333133-.381371.02083-.07501.0304-1.587566.03051-4.820976 171e-6-4.647695 938e-6-4.713765.0576-4.865201.08086-.216109.226143-.373244.444477-.48073.155053-.07633.216707-.0908.382422-.08977.255727.0016.497744.105386.662467.284089.230991.250596.210725-.129869.226734 4.256615l.0143 3.918951.08025.136517c.110706.188336.266628.286072.481133.301588.307786.02226.56762-.145593.64976-.419753.02341-.07813.0332-.564178.0332-1.648116v-1.53731l.536352.01313c.575283.01408.69219.03827 1.003442.207678.231243.125858.217721.03485.233746 1.573208l.0143 1.373063.07151.127455c.207793.370336.74054.429161 1.012217.111767.0536-.06262.111659-.170282.129028-.23926.01987-.07891.03158-.476051.03158-1.071032v-.945616l.178784-.0052c.775681-.02257.911663.03445 1.365749.572677l.22536.267117.009.893723.009.893723.08626.139444c.108932.1761.325821.299304.526897.299304.205676.0.42357-.122306.530924-.298014l.08596-.140685.0091-.670309.0091-.670308.350029.01004c.337276.0097.357903.01393.566136.116874.342987.169557.562742.449035.638758.812353.04478.21403.0535.10572-.229194 2.84581-.108663 1.053231-.157074 1.283848-.356543 1.698493-.06059.125951-.501717.898369-.980282 1.716486-.759341 1.298108-.885599 1.498411-.991706 1.573302l-.121587.08582-3.995157.0073c-3.970518.0072-3.995881.0069-4.11266-.05104z"
     /></svg>
